<?xml version="1.0" standalone="no"?>
<!DOCTYPE svg PUBLIC "-//W3C//DTD SVG 20010904//EN"
 "http://www.w3.org/TR/2001/REC-SVG-20010904/DTD/svg10.dtd">
<svg version="1.0" xmlns="http://www.w3.org/2000/svg"
 width="2231.000000pt" height="2231.000000pt" viewBox="0 0 2231.000000 2231.000000"
 preserveAspectRatio="xMidYMid meet">
<metadata>
Created by potrace 1.14, written by Peter Selinger 2001-2017
</metadata>
<g transform="translate(0.000000,2231.000000) scale(0.100000,-0.100000)"
fill="#000000" stroke="none">
<path d="M0 14892 c0 -5 16 -54 36 -108 54 -150 100 -281 244 -689 50 -143 96
-272 102 -287 l10 -28 783 0 783 0 -40 103 c-22 56 -64 167 -94 247 -31 80
-59 154 -64 165 -5 11 -37 92 -70 180 -34 88 -65 169 -69 180 -21 50 -80 202
-86 223 l-6 22 -765 0 c-420 0 -764 -4 -764 -8z"/>
<path d="M1913 14892 l-43 -3 14 -33 c7 -18 62 -158 120 -312 59 -153 111
-288 116 -299 5 -11 48 -119 94 -240 l85 -220 766 -3 c728 -2 767 -1 760 15
-4 10 -29 79 -55 153 -27 74 -56 155 -65 180 -9 25 -18 52 -20 60 -2 8 -20 58
-39 110 -19 52 -50 140 -69 195 -20 55 -59 166 -88 248 l-52 147 -151 1 c-579
3 -1338 3 -1373 1z"/>
<path d="M6995 14888 c-44 -119 -67 -186 -70 -198 -2 -8 -63 -188 -135 -400
-72 -212 -148 -437 -170 -500 -21 -63 -109 -322 -195 -575 -86 -253 -176 -518
-200 -590 -69 -206 -210 -619 -390 -1150 -92 -269 -184 -542 -205 -605 -21
-63 -100 -295 -175 -515 -74 -220 -151 -447 -171 -505 -19 -58 -37 -111 -40
-119 -2 -8 -7 -12 -9 -9 -6 5 -43 111 -165 473 -49 143 -116 341 -150 440
-124 359 -323 946 -407 1195 -47 140 -87 257 -89 259 -6 7 -1423 5 -1430 -2
-4 -4 195 -551 256 -701 5 -12 32 -83 60 -159 28 -76 55 -148 60 -160 8 -20
334 -889 400 -1067 15 -41 222 -592 460 -1225 238 -632 445 -1184 460 -1226
45 -124 40 -119 123 -120 358 -4 11381 -3 11388 1 4 3 -43 73 -107 155 -63 83
-122 160 -132 173 -19 26 -34 45 -124 157 -35 44 -90 116 -122 160 -33 44 -62
82 -66 85 -3 3 -19 23 -36 45 -16 22 -74 98 -129 170 -56 71 -104 135 -108
141 -6 10 27 60 80 124 7 8 70 89 140 180 69 91 170 221 223 290 53 69 154
199 224 290 70 91 133 172 139 180 7 8 48 62 92 119 44 58 105 136 135 176 30
39 75 97 99 129 l45 58 28 -34 c15 -18 61 -76 100 -128 61 -79 129 -166 195
-250 7 -8 109 -141 228 -295 118 -154 257 -334 308 -400 50 -65 135 -176 188
-245 52 -69 128 -168 168 -220 40 -52 82 -108 94 -124 12 -16 56 -72 97 -125
41 -53 175 -226 297 -386 123 -159 229 -297 236 -305 6 -9 32 -41 56 -73 l43
-57 839 0 c462 0 839 4 839 8 0 8 -28 48 -74 107 -13 17 -90 116 -170 220 -81
105 -152 197 -159 205 -7 8 -57 74 -112 145 -55 72 -103 135 -107 140 -18 22
-141 182 -162 209 -11 15 -32 42 -46 60 -15 17 -61 76 -103 131 -173 224 -349
452 -375 485 -15 19 -56 73 -92 120 -36 47 -103 134 -150 193 -47 60 -92 118
-100 130 -8 12 -88 116 -178 232 -89 115 -195 252 -235 303 -40 52 -97 126
-128 165 -30 40 -169 221 -309 402 -139 182 -277 360 -307 396 -29 36 -53 73
-53 81 0 8 37 62 83 120 74 96 392 507 526 682 30 39 129 168 221 286 180 232
461 598 550 713 30 40 121 158 202 262 80 105 250 325 377 490 127 165 237
307 245 316 7 8 31 40 54 71 22 30 47 61 54 69 8 8 25 30 38 49 14 19 30 42
37 50 7 8 80 103 163 210 83 107 156 202 163 210 6 8 47 61 90 118 l78 102
-869 0 -869 0 -79 -102 c-43 -57 -82 -107 -86 -113 -5 -5 -62 -80 -128 -165
-66 -85 -123 -159 -127 -165 -5 -5 -44 -57 -88 -115 -44 -58 -83 -107 -86
-110 -3 -3 -43 -54 -89 -115 -46 -60 -116 -151 -155 -201 -38 -50 -80 -104
-92 -120 -12 -16 -29 -38 -38 -49 -185 -238 -567 -733 -703 -909 -51 -67 -117
-152 -147 -191 -30 -38 -82 -106 -116 -150 -105 -137 -99 -131 -108 -116 -5 7
-42 57 -84 110 -63 80 -281 362 -666 861 -36 47 -71 92 -78 100 -6 8 -67 87
-135 175 -134 174 -143 185 -517 670 -140 182 -319 414 -399 518 l-145 187
-838 0 c-462 0 -839 -2 -839 -5 0 -2 64 -87 143 -189 261 -338 531 -689 598
-776 119 -157 303 -395 309 -400 3 -3 39 -50 80 -105 41 -55 83 -109 92 -120
9 -11 60 -76 113 -145 52 -69 101 -132 108 -140 6 -9 32 -42 57 -75 25 -33 47
-62 50 -65 6 -6 20 -24 209 -270 78 -102 148 -192 154 -200 7 -9 58 -74 112
-145 55 -72 105 -137 112 -145 7 -8 70 -89 139 -180 135 -174 185 -239 299
-386 38 -50 81 -105 95 -124 14 -18 60 -78 103 -134 44 -55 81 -106 84 -112 2
-7 -35 -63 -83 -125 -161 -208 -748 -971 -788 -1023 -21 -28 -60 -78 -85 -111
-25 -33 -57 -74 -71 -91 -14 -16 -36 -45 -50 -64 -14 -18 -41 -54 -61 -79 -38
-50 -624 -810 -777 -1009 -52 -67 -99 -125 -105 -129 -8 -5 -2599 -8 -3045 -4
l-83 1 93 108 c51 59 105 121 119 137 88 100 261 300 304 351 28 32 66 77 86
99 20 22 83 94 140 161 210 244 603 699 609 704 3 3 39 43 80 90 41 47 77 87
80 90 33 30 391 452 427 504 12 17 26 36 31 41 62 73 298 424 376 559 153 265
298 617 341 826 2 8 10 47 19 85 34 154 44 276 41 495 -2 118 -6 231 -9 250
-3 19 -8 55 -11 78 -4 24 -8 54 -11 65 -2 12 -9 51 -15 87 -18 117 -99 344
-176 494 -20 39 -41 81 -47 93 -6 13 -14 23 -18 23 -5 0 -8 5 -8 11 0 21 -137
202 -219 290 -230 247 -530 437 -872 555 -95 32 -309 88 -380 98 -20 3 -42 7
-50 10 -8 3 -36 7 -64 10 -27 3 -68 8 -90 11 -136 19 -219 23 -465 20 -151 -2
-295 -6 -320 -9 -70 -9 -214 -30 -220 -31 -14 -3 -118 -26 -135 -29 -290 -59
-606 -193 -865 -366 -253 -170 -456 -373 -622 -623 -32 -49 -58 -90 -58 -92 0
-2 -19 -36 -42 -77 -73 -129 -196 -439 -213 -541 -3 -16 -8 -33 -10 -37 -2 -4
-7 -20 -9 -36 -3 -16 -8 -40 -11 -54 -8 -37 -33 -198 -40 -250 -3 -25 -8 -161
-11 -302 l-6 -258 784 -1 c431 -1 801 0 823 1 75 2 71 -9 71 183 0 247 8 319
49 474 74 274 260 480 505 557 223 71 530 62 692 -20 260 -131 398 -380 402
-724 1 -220 -32 -364 -130 -560 -77 -154 -263 -428 -396 -585 -9 -11 -45 -54
-79 -95 -72 -87 -231 -273 -240 -280 -3 -3 -86 -102 -185 -220 -98 -118 -205
-246 -237 -283 -32 -37 -55 -73 -51 -79 4 -6 3 -8 -3 -5 -11 7 -32 -15 -143
-148 -41 -49 -77 -92 -80 -95 -4 -3 -74 -86 -157 -185 -166 -199 -432 -516
-466 -555 -12 -14 -42 -50 -67 -80 -25 -30 -47 -57 -50 -60 -3 -3 -26 -30 -51
-60 -36 -43 -300 -356 -454 -539 -11 -13 -25 -29 -30 -35 -6 -6 -33 -38 -61
-71 -27 -33 -61 -73 -74 -90 -14 -16 -38 -43 -55 -60 l-30 -30 -1180 2 c-649
1 -1188 2 -1197 2 -16 1 -14 10 13 84 52 142 290 771 299 792 5 11 61 160 126
330 64 171 133 355 154 410 74 193 427 1127 465 1230 12 33 72 193 134 355 62
162 139 367 172 455 34 88 65 169 69 180 5 11 25 65 45 120 20 55 41 109 46
120 5 11 33 85 63 165 30 80 181 480 336 890 155 410 292 772 305 805 36 97
84 224 121 318 19 48 34 89 34 92 0 3 -351 5 -780 5 -615 0 -782 -3 -785 -12z"/>
<path d="M2395 13445 c13 -33 26 -69 30 -80 4 -11 11 -29 16 -40 4 -11 26 -67
48 -125 22 -58 101 -262 175 -455 l135 -350 767 -3 c727 -2 766 -1 759 15 -8
21 -120 340 -140 398 -15 46 -33 94 -139 395 -42 118 -85 235 -95 260 l-17 45
-781 0 -781 0 23 -60z"/>
<path d="M15707 8533 c3 -7 9 -13 14 -13 5 0 9 -5 9 -10 0 -6 42 -64 93 -129
50 -66 116 -150 144 -188 224 -291 489 -633 510 -658 13 -16 37 -47 51 -67 15
-20 36 -38 47 -40 34 -6 1654 -3 1660 4 3 3 0 12 -7 19 -15 16 -170 213 -238
304 -25 33 -51 66 -57 75 -7 8 -76 98 -154 200 -200 260 -380 493 -391 505 -6
7 -302 10 -848 11 -697 1 -837 -1 -833 -13z"/>
<path d="M19772 8538 c2 -5 49 -69 106 -141 56 -73 212 -276 347 -452 136
-176 258 -335 273 -354 15 -19 50 -64 78 -100 l50 -66 815 0 c448 -1 824 1
836 3 20 4 21 7 11 26 -6 11 -14 23 -17 26 -3 3 -20 23 -36 45 -16 22 -35 47
-42 55 -7 8 -94 121 -193 250 -99 129 -186 242 -193 250 -7 9 -33 42 -57 75
-25 33 -53 69 -62 80 -9 11 -67 85 -128 165 l-112 145 -839 1 c-510 0 -838 -3
-837 -8z"/>
</g>
</svg>
